<mxfile host="Electron" modified="2023-05-07T14:40:42.552Z" agent="Mozilla/5.0 (Windows NT 10.0; Win64; x64) AppleWebKit/537.36 (KHTML, like Gecko) draw.io/21.2.8 Chrome/112.0.5615.165 Electron/24.2.0 Safari/537.36" etag="1I2xVxpUn7hTbfPMXboN" version="21.2.8" type="device">
  <diagram name="Page-1" id="LjLnz8m0q2qN_3nIuv_X">
    <mxGraphModel dx="1098" dy="797" grid="1" gridSize="10" guides="1" tooltips="1" connect="1" arrows="1" fold="1" page="1" pageScale="1" pageWidth="827" pageHeight="1169" math="0" shadow="0">
      <root>
        <mxCell id="0" />
        <mxCell id="1" parent="0" />
        <mxCell id="leaktjK2m7zJccJ0dair-1" value="" style="verticalAlign=top;align=center;spacingTop=8;spacingLeft=2;spacingRight=12;shape=cube;size=10;direction=south;fontStyle=4;html=1;whiteSpace=wrap;" vertex="1" parent="1">
          <mxGeometry x="70" y="261" width="260" height="170" as="geometry" />
        </mxCell>
        <mxCell id="leaktjK2m7zJccJ0dair-2" value="" style="verticalAlign=top;align=left;spacingTop=8;spacingLeft=2;spacingRight=12;shape=cube;size=10;direction=south;fontStyle=4;html=1;whiteSpace=wrap;" vertex="1" parent="1">
          <mxGeometry x="440" y="261" width="270" height="170" as="geometry" />
        </mxCell>
        <mxCell id="leaktjK2m7zJccJ0dair-3" value="" style="line;strokeWidth=1;fillColor=none;align=left;verticalAlign=middle;spacingTop=-1;spacingLeft=3;spacingRight=3;rotatable=0;labelPosition=right;points=[];portConstraint=eastwest;strokeColor=inherit;" vertex="1" parent="1">
          <mxGeometry x="330" y="342" width="110" height="8" as="geometry" />
        </mxCell>
        <mxCell id="leaktjK2m7zJccJ0dair-4" value="&amp;lt;&amp;lt;artifact&amp;gt;&amp;gt;&lt;br&gt;CApCS.jar" style="html=1;whiteSpace=wrap;" vertex="1" parent="1">
          <mxGeometry x="140" y="325" width="110" height="55" as="geometry" />
        </mxCell>
        <mxCell id="leaktjK2m7zJccJ0dair-6" value="&amp;lt;&amp;lt;artifact&amp;gt;&amp;gt;&lt;br style=&quot;border-color: var(--border-color);&quot;&gt;CApCS.jar" style="html=1;whiteSpace=wrap;" vertex="1" parent="1">
          <mxGeometry x="520" y="321" width="110" height="59" as="geometry" />
        </mxCell>
        <mxCell id="leaktjK2m7zJccJ0dair-7" value="&amp;lt;&amp;lt;device&amp;gt;&amp;gt;&lt;br&gt;Server Computer" style="text;html=1;strokeColor=none;fillColor=none;align=center;verticalAlign=middle;whiteSpace=wrap;rounded=0;" vertex="1" parent="1">
          <mxGeometry x="525" y="275" width="100" height="40" as="geometry" />
        </mxCell>
        <mxCell id="leaktjK2m7zJccJ0dair-8" value="&amp;lt;&amp;lt;device&amp;gt;&amp;gt;&lt;br&gt;Client Computer" style="text;html=1;align=center;verticalAlign=middle;resizable=0;points=[];autosize=1;strokeColor=none;fillColor=none;" vertex="1" parent="1">
          <mxGeometry x="140" y="275" width="110" height="40" as="geometry" />
        </mxCell>
        <mxCell id="leaktjK2m7zJccJ0dair-10" value=":&amp;lt;port:1234&amp;gt;" style="text;html=1;strokeColor=none;fillColor=none;align=center;verticalAlign=middle;whiteSpace=wrap;rounded=0;" vertex="1" parent="1">
          <mxGeometry x="350" y="300" width="70" height="42" as="geometry" />
        </mxCell>
      </root>
    </mxGraphModel>
  </diagram>
</mxfile>
